<svg width="21" height="20" viewBox="0 0 21 20" fill="none" xmlns="http://www.w3.org/2000/svg">
<g clip-path="url(#clip0_1_14)">
<path d="M18.22 14.1301C18.22 15.3801 17.857 16.3871 17.132 17.0721C16.405 17.7581 15.398 18.1221 14.188 18.1221H5.96201C4.75201 18.1221 3.74401 17.7581 3.01801 17.0721C2.29301 16.3471 1.92801 15.3391 1.92801 14.0891V5.82207C1.92801 4.61207 5.19201 0.702074 5.91701 -0.0239258C2.41201 -0.0219258 0.0750122 2.31607 0.0750122 5.82207V14.0881C0.0750122 15.8221 0.639012 17.3151 1.76801 18.4031C2.85701 19.4511 4.30801 19.9761 5.96201 19.9761H14.188C15.921 19.9761 17.373 19.4111 18.421 18.4031C19.51 17.3551 20.075 15.8631 20.075 14.1291V5.82207C20.075 4.12907 19.51 2.67707 18.462 1.62907C17.414 0.540074 15.92 -0.0239258 14.228 -0.0239258H5.92001L3.01801 2.88007C3.70401 2.19407 4.75201 1.83107 5.96201 1.83107H14.268C15.478 1.83107 16.486 2.19407 17.212 2.92107C17.898 3.64607 18.3 4.65407 18.3 5.82307V14.1301H18.22ZM15.357 5.94307C15.5133 5.94765 15.669 5.92081 15.8148 5.86414C15.9605 5.80748 16.0934 5.72214 16.2056 5.61318C16.3178 5.50422 16.407 5.37386 16.4679 5.22982C16.5288 5.08577 16.5602 4.93097 16.5602 4.77457C16.5602 4.61818 16.5288 4.46338 16.4679 4.31933C16.407 4.17529 16.3178 4.04492 16.2056 3.93597C16.0934 3.82701 15.9605 3.74167 15.8148 3.68501C15.669 3.62834 15.5133 3.6015 15.357 3.60607C15.053 3.61497 14.7645 3.74198 14.5526 3.96014C14.3407 4.17831 14.2222 4.47046 14.2222 4.77457C14.2222 5.07869 14.3407 5.37084 14.5526 5.58901C14.7645 5.80717 15.053 5.93418 15.357 5.94307V5.94307ZM10.075 13.2831C9.19916 13.2791 8.3603 12.9294 7.74097 12.3101C7.12164 11.6908 6.77196 10.8519 6.76801 9.97607C6.77196 9.10022 7.12164 8.26136 7.74097 7.64203C8.3603 7.0227 9.19916 6.67302 10.075 6.66907C10.9509 6.67302 11.7897 7.0227 12.4091 7.64203C13.0284 8.26136 13.3781 9.10022 13.382 9.97607C13.3778 10.8518 13.028 11.6904 12.4087 12.3095C11.7894 12.9286 10.9507 13.2781 10.075 13.2821V13.2831ZM10.075 4.81507C7.25301 4.81507 4.91401 7.11307 4.91401 9.97607C4.91216 10.6543 5.0444 11.3263 5.30311 11.9533C5.56182 12.5803 5.9419 13.15 6.42151 13.6296C6.90113 14.1092 7.4708 14.4893 8.0978 14.748C8.72479 15.0067 9.39674 15.1389 10.075 15.1371C12.938 15.1371 15.235 12.7981 15.235 9.97707C15.235 7.15307 12.897 4.81507 10.075 4.81507V4.81507Z" fill="black"/>
</g>
<defs>
<clipPath id="clip0_1_14">
<rect width="21" height="20" fill="white"/>
</clipPath>
</defs>
</svg>
